<svg xmlns="http://www.w3.org/2000/svg" xmlns:xlink="http://www.w3.org/1999/xlink" version="1.1" x="0px" y="0px" viewBox="0 0 100 125" style="enable-background:new 0 0 100 100;" xml:space="preserve"><g><path d="M92.1694946,46.8305054c-0.1369019-0.1369019-0.2897949-0.2457886-0.4399414-0.359375l-38.52948-38.529541   c-1.6055298-1.6054688-4.2084961-1.6054688-5.8140259,0c-1.6054688,1.6055298-1.6054688,4.2084961,0,5.8140259   L83.4082642,49.777771L47.3860474,85.7999268c-1.6054688,1.6054688-1.6054688,4.2084961,0,5.8139648v0.000061   c1.6055298,1.6054688,4.2084961,1.6054688,5.8140259,0l38.52948-38.529541   c0.1501465-0.1135254,0.3030396-0.2224731,0.4399414-0.359375c0.8130493-0.8130493,1.2106934-1.8817139,1.2002563-2.9472656   C93.380188,48.7122192,92.9825439,47.6435547,92.1694946,46.8305054z"/><path d="M52.8361816,53.0583496c0.8130493-0.8130493,1.2106934-1.8817139,1.2002563-2.9472656   c0.010437-1.0655518-0.387207-2.1342163-1.2002563-2.9472656c-0.1368408-0.1368408-0.2896729-0.2456665-0.4397583-0.3591919   L13.8666992,8.2749634c-1.6054688-1.6055298-4.2084961-1.6055298-5.8139648,0   c-1.6054688,1.6054688-1.6054688,4.2084961,0,5.8139648L44.0748901,50.111084L8.0527344,86.1332397   c-1.6054688,1.6055298-1.6054688,4.2084961,0,5.8140259c1.6054688,1.6054688,4.2084961,1.6054688,5.8139648,0   l38.5297241-38.5297241C52.5465088,53.3040161,52.6993408,53.1951904,52.8361816,53.0583496z"/></g><text x="0" y="115" fill="#000000" font-size="5px" font-weight="bold" font-family="'Helvetica Neue', Helvetica, Arial-Unicode, Arial, Sans-serif">Created by Evgeni Moryakov</text><text x="0" y="120" fill="#000000" font-size="5px" font-weight="bold" font-family="'Helvetica Neue', Helvetica, Arial-Unicode, Arial, Sans-serif">from the Noun Project</text></svg>